<svg width="0" height="0" xmlns="http://www.w3.org/2000/svg">
  <defs>
    <linearGradient id="socialGradient" x1="0%" y1="0%" x2="100%" y2="100%">
      <stop offset="0%" style="stop-color:#667eea;stop-opacity:1" />
      <stop offset="100%" style="stop-color:#764ba2;stop-opacity:1" />
    </linearGradient>
    
    <!-- GitHub Icon -->
    <symbol id="github-icon" viewBox="0 0 24 24">
      <path fill="url(#socialGradient)" d="M12 0c-6.626 0-12 5.373-12 12 0 5.302 3.438 9.8 8.207 11.387.599.111.793-.261.793-.577v-2.234c-3.338.726-4.033-1.416-4.033-1.416-.546-1.387-1.333-1.756-1.333-1.756-1.089-.745.083-.729.083-.729 1.205.084 1.839 1.237 1.839 1.237 1.07 1.834 2.807 1.304 3.492.997.107-.775.418-1.305.762-1.604-2.665-.305-5.467-1.334-5.467-5.931 0-1.311.469-2.381 1.236-3.221-.124-.303-.535-1.524.117-3.176 0 0 1.008-.322 3.301 1.23.957-.266 1.983-.399 3.003-.404 1.02.005 2.047.138 3.006.404 2.291-1.552 3.297-1.23 3.297-1.23.653 1.653.242 2.874.118 3.176.77.84 1.235 1.911 1.235 3.221 0 4.609-2.807 5.624-5.479 5.921.43.372.823 1.102.823 2.222v3.293c0 .319.192.694.801.576 4.765-1.589 8.199-6.086 8.199-11.386 0-6.627-5.373-12-12-12z"/>
    </symbol>
    
    <!-- LinkedIn Icon -->
    <symbol id="linkedin-icon" viewBox="0 0 24 24">
      <path fill="url(#socialGradient)" d="M20.447 20.452h-3.554v-5.569c0-1.328-.027-3.037-1.852-3.037-1.853 0-2.136 1.445-2.136 2.939v5.667H9.351V9h3.414v1.561h.046c.477-.9 1.637-1.85 3.37-1.85 3.601 0 4.267 2.37 4.267 5.455v6.286zM5.337 7.433c-1.144 0-2.063-.926-2.063-2.065 0-1.138.92-2.063 2.063-2.063 1.14 0 2.064.925 2.064 2.063 0 1.139-.925 2.065-2.064 2.065zm1.782 13.019H3.555V9h3.564v11.452zM22.225 0H1.771C.792 0 0 .774 0 1.729v20.542C0 23.227.792 24 1.771 24h20.451C23.2 24 24 23.227 24 22.271V1.729C24 .774 23.2 0 22.222 0h.003z"/>
    </symbol>
    
    <!-- Twitter Icon -->
    <symbol id="twitter-icon" viewBox="0 0 24 24">
      <path fill="url(#socialGradient)" d="M23.953 4.57a10 10 0 01-2.825.775 4.958 4.958 0 002.163-2.723c-.951.555-2.005.959-3.127 1.184a4.92 4.92 0 00-8.384 4.482C7.69 8.095 4.067 6.13 1.64 3.162a4.822 4.822 0 00-.666 2.475c0 1.71.87 3.213 2.188 4.096a4.904 4.904 0 01-2.228-.616v.06a4.923 4.923 0 003.946 4.827 4.996 4.996 0 01-2.212.085 4.936 4.936 0 004.604 3.417 9.867 9.867 0 01-6.102 2.105c-.39 0-.779-.023-1.17-.067a13.995 13.995 0 007.557 2.209c9.053 0 13.998-7.496 13.998-13.985 0-.21 0-.42-.015-.63A9.935 9.935 0 0024 4.59z"/>
    </symbol>
    
    <!-- Email Icon -->
    <symbol id="email-icon" viewBox="0 0 24 24">
      <path fill="url(#socialGradient)" d="M24 5.457v13.909c0 .904-.732 1.636-1.636 1.636h-3.819V11.73L12 16.64l-6.545-4.91v9.273H1.636A1.636 1.636 0 0 1 0 19.366V5.457c0-.904.732-1.636 1.636-1.636h.91L12 10.09l9.455-6.269h.909c.904 0 1.636.732 1.636 1.636z"/>
    </symbol>
    
    <!-- Website Icon -->
    <symbol id="website-icon" viewBox="0 0 24 24">
      <path fill="url(#socialGradient)" d="M12 0C5.374 0 0 5.373 0 12s5.374 12 12 12 12-5.373 12-12S18.626 0 12 0zm5.568 13.8h-3.924c-.2 1.96-.876 3.54-1.644 4.633.064-.004.126-.016.19-.021 2.043-.22 3.798-1.374 5.378-2.832v-1.78zm0-3.6v-1.78c-1.58-1.458-3.335-2.612-5.378-2.832-.064-.005-.126-.017-.19-.021.768 1.093 1.444 2.673 1.644 4.633h3.924zM12 2.04c-.71 0-1.37.116-2.02.31-.65.194-1.27.48-1.85.85-.58.37-1.12.82-1.61 1.35-.49.53-.92 1.12-1.29 1.77-.37.65-.66 1.35-.87 2.09-.21.74-.32 1.52-.32 2.34s.11 1.6.32 2.34c.21.74.5 1.44.87 2.09.37.65.8 1.24 1.29 1.77.49.53 1.03.98 1.61 1.35.58.37 1.2.66 1.85.85.65.19 1.31.31 2.02.31s1.37-.12 2.02-.31c.65-.19 1.27-.48 1.85-.85.58-.37 1.12-.82 1.61-1.35.49-.53.92-1.12 1.29-1.77.37-.65.66-1.35.87-2.09.21-.74.32-1.52.32-2.34s-.11-1.6-.32-2.34c-.21-.74-.5-1.44-.87-2.09-.37-.65-.8-1.24-1.29-1.77-.49-.53-1.03-.98-1.61-1.35-.58-.37-1.2-.66-1.85-.85C13.37 2.16 12.71 2.04 12 2.04z"/>
    </symbol>
  </defs>
</svg>