<svg width="0" height="0" xmlns="http://www.w3.org/2000/svg">
  <defs>
    <linearGradient id="iconGradient" x1="0%" y1="0%" x2="100%" y2="100%">
      <stop offset="0%" style="stop-color:#667eea;stop-opacity:1" />
      <stop offset="100%" style="stop-color:#764ba2;stop-opacity:1" />
    </linearGradient>
    
    <!-- Search Icon -->
    <symbol id="search-icon" viewBox="0 0 24 24">
      <path fill="none" stroke="url(#iconGradient)" stroke-width="2" stroke-linecap="round" stroke-linejoin="round" d="m21 21-6-6m2-5a7 7 0 1 1-14 0 7 7 0 0 1 14 0z"/>
    </symbol>
    
    <!-- Menu Icon -->
    <symbol id="menu-icon" viewBox="0 0 24 24">
      <path fill="none" stroke="url(#iconGradient)" stroke-width="2" stroke-linecap="round" stroke-linejoin="round" d="M3 12h18M3 6h18M3 18h18"/>
    </symbol>
    
    <!-- Close Icon -->
    <symbol id="close-icon" viewBox="0 0 24 24">
      <path fill="none" stroke="url(#iconGradient)" stroke-width="2" stroke-linecap="round" stroke-linejoin="round" d="M18 6 6 18M6 6l12 12"/>
    </symbol>
    
    <!-- Arrow Right Icon -->
    <symbol id="arrow-right-icon" viewBox="0 0 24 24">
      <path fill="none" stroke="url(#iconGradient)" stroke-width="2" stroke-linecap="round" stroke-linejoin="round" d="M5 12h14m-7-7 7 7-7 7"/>
    </symbol>
    
    <!-- Arrow Left Icon -->
    <symbol id="arrow-left-icon" viewBox="0 0 24 24">
      <path fill="none" stroke="url(#iconGradient)" stroke-width="2" stroke-linecap="round" stroke-linejoin="round" d="M19 12H5m7 7-7-7 7-7"/>
    </symbol>
    
    <!-- Arrow Up Icon -->
    <symbol id="arrow-up-icon" viewBox="0 0 24 24">
      <path fill="none" stroke="url(#iconGradient)" stroke-width="2" stroke-linecap="round" stroke-linejoin="round" d="M12 19V5m-7 7 7-7 7 7"/>
    </symbol>
    
    <!-- Heart Icon -->
    <symbol id="heart-icon" viewBox="0 0 24 24">
      <path fill="url(#iconGradient)" d="M20.84 4.61a5.5 5.5 0 0 0-7.78 0L12 5.67l-1.06-1.06a5.5 5.5 0 0 0-7.78 7.78l1.06 1.06L12 21.23l7.78-7.78 1.06-1.06a5.5 5.5 0 0 0 0-7.78z"/>
    </symbol>
    
    <!-- Star Icon -->
    <symbol id="star-icon" viewBox="0 0 24 24">
      <path fill="url(#iconGradient)" d="M12 2l3.09 6.26L22 9.27l-5 4.87 1.18 6.88L12 17.77l-6.18 3.25L7 14.14 2 9.27l6.91-1.01L12 2z"/>
    </symbol>
    
    <!-- Calendar Icon -->
    <symbol id="calendar-icon" viewBox="0 0 24 24">
      <rect x="3" y="4" width="18" height="18" rx="2" ry="2" fill="none" stroke="url(#iconGradient)" stroke-width="2"/>
      <line x1="16" y1="2" x2="16" y2="6" stroke="url(#iconGradient)" stroke-width="2" stroke-linecap="round"/>
      <line x1="8" y1="2" x2="8" y2="6" stroke="url(#iconGradient)" stroke-width="2" stroke-linecap="round"/>
      <line x1="3" y1="10" x2="21" y2="10" stroke="url(#iconGradient)" stroke-width="2"/>
    </symbol>
    
    <!-- User Icon -->
    <symbol id="user-icon" viewBox="0 0 24 24">
      <path fill="none" stroke="url(#iconGradient)" stroke-width="2" stroke-linecap="round" stroke-linejoin="round" d="M20 21v-2a4 4 0 0 0-4-4H8a4 4 0 0 0-4 4v2"/>
      <circle cx="12" cy="7" r="4" fill="none" stroke="url(#iconGradient)" stroke-width="2"/>
    </symbol>
    
    <!-- Settings Icon -->
    <symbol id="settings-icon" viewBox="0 0 24 24">
      <circle cx="12" cy="12" r="3" fill="none" stroke="url(#iconGradient)" stroke-width="2"/>
      <path fill="none" stroke="url(#iconGradient)" stroke-width="2" d="M12 1v6m0 10v6m11-7h-6m-10 0H1m15.5-6.5-4.24 4.24M7.76 7.76 3.52 3.52m12.96 12.96-4.24-4.24M7.76 16.24l-4.24 4.24"/>
    </symbol>
    
    <!-- Home Icon -->
    <symbol id="home-icon" viewBox="0 0 24 24">
      <path fill="none" stroke="url(#iconGradient)" stroke-width="2" stroke-linecap="round" stroke-linejoin="round" d="m3 9 9-7 9 7v11a2 2 0 0 1-2 2H5a2 2 0 0 1-2-2z"/>
      <polyline points="9,22 9,12 15,12 15,22" fill="none" stroke="url(#iconGradient)" stroke-width="2" stroke-linecap="round" stroke-linejoin="round"/>
    </symbol>
    
    <!-- Book Icon -->
    <symbol id="book-icon" viewBox="0 0 24 24">
      <path fill="none" stroke="url(#iconGradient)" stroke-width="2" stroke-linecap="round" stroke-linejoin="round" d="M4 19.5A2.5 2.5 0 0 1 6.5 17H20"/>
      <path fill="none" stroke="url(#iconGradient)" stroke-width="2" stroke-linecap="round" stroke-linejoin="round" d="M6.5 2H20v20H6.5A2.5 2.5 0 0 1 4 19.5v-15A2.5 2.5 0 0 1 6.5 2z"/>
    </symbol>
    
    <!-- Code Icon -->
    <symbol id="code-icon" viewBox="0 0 24 24">
      <polyline points="16,18 22,12 16,6" fill="none" stroke="url(#iconGradient)" stroke-width="2" stroke-linecap="round" stroke-linejoin="round"/>
      <polyline points="8,6 2,12 8,18" fill="none" stroke="url(#iconGradient)" stroke-width="2" stroke-linecap="round" stroke-linejoin="round"/>
    </symbol>
    
    <!-- External Link Icon -->
    <symbol id="external-link-icon" viewBox="0 0 24 24">
      <path fill="none" stroke="url(#iconGradient)" stroke-width="2" stroke-linecap="round" stroke-linejoin="round" d="M18 13v6a2 2 0 0 1-2 2H5a2 2 0 0 1-2-2V8a2 2 0 0 1 2-2h6"/>
      <polyline points="15,3 21,3 21,9" fill="none" stroke="url(#iconGradient)" stroke-width="2" stroke-linecap="round" stroke-linejoin="round"/>
      <line x1="10" y1="14" x2="21" y2="3" stroke="url(#iconGradient)" stroke-width="2" stroke-linecap="round"/>
    </symbol>
    
    <!-- Tag Icon -->
    <symbol id="tag-icon" viewBox="0 0 24 24">
      <path fill="none" stroke="url(#iconGradient)" stroke-width="2" stroke-linecap="round" stroke-linejoin="round" d="M20.59 13.41l-7.17 7.17a2 2 0 0 1-2.83 0L2 12V2h10l8.59 8.59a2 2 0 0 1 0 2.82z"/>
      <line x1="7" y1="7" x2="7.01" y2="7" stroke="url(#iconGradient)" stroke-width="2" stroke-linecap="round"/>
    </symbol>
  </defs>
</svg>